<svg data-v-423bf9ae="" xmlns="http://www.w3.org/2000/svg" viewBox="0 0 479 90" class="iconLeft"><!----><defs data-v-423bf9ae=""><linearGradient data-v-423bf9ae="" gradientTransform="rotate(25)" id="d4fced7b-4dea-4ea2-bc92-e6c8f13ccb26" x1="0%" y1="0%" x2="100%" y2="0%"><stop data-v-423bf9ae="" offset="0%" style="stop-color: rgb(0, 118, 221); stop-opacity: 1;"></stop><stop data-v-423bf9ae="" offset="100%" style="stop-color: rgb(0, 205, 233); stop-opacity: 1;"></stop></linearGradient></defs><!----><g data-v-423bf9ae="" id="ae744011-413a-440b-820a-b7bd9f24ce35" fill="#ffffff" transform="matrix(5.940593835033989,0,0,5.940593835033989,154.12422877149893,-4.2475247974197785)"><path d="M6.90 13.15L8.79 13.15L4.72 7.74L8.34 3.82L6.46 3.82L2.65 8.04L2.65 3.82L1.17 3.82L1.17 13.15L2.65 13.15L2.65 9.99L3.75 8.81ZM13.90 6.53L13.90 10.57C13.78 11.74 12.99 12.12 12.25 12.12C11.23 12.12 10.79 11.39 10.79 10.31L10.79 6.53L9.38 6.53L9.38 10.63C9.38 12.69 10.70 13.33 11.86 13.33C12.79 13.33 13.50 12.95 13.90 12.37L14.07 13.15L15.31 13.15L15.31 6.53ZM20.66 6.36C19.72 6.36 18.99 6.72 18.48 7.32L18.48 3.24L17.06 3.24L17.06 13.15L18.21 13.15L18.39 12.25C18.90 12.91 19.67 13.31 20.66 13.31C22.39 13.31 23.76 12.00 23.76 9.84C23.76 7.69 22.39 6.36 20.66 6.36ZM20.33 12.12C19.09 12.12 18.29 11.14 18.29 9.84C18.29 8.55 19.09 7.55 20.33 7.55C21.52 7.55 22.31 8.55 22.31 9.84C22.31 11.14 21.52 12.12 20.33 12.12ZM26.02 5.26C26.53 5.26 26.94 4.86 26.94 4.36C26.94 3.86 26.53 3.46 26.02 3.46C25.51 3.46 25.10 3.86 25.10 4.36C25.10 4.86 25.51 5.26 26.02 5.26ZM25.33 13.15L26.72 13.15L26.72 6.53L25.33 6.53ZM28.70 13.15L30.11 13.15L30.11 3.24L28.70 3.24ZM32.78 5.26C33.29 5.26 33.70 4.86 33.70 4.36C33.70 3.86 33.29 3.46 32.78 3.46C32.27 3.46 31.86 3.86 31.86 4.36C31.86 4.86 32.27 5.26 32.78 5.26ZM32.10 13.15L33.48 13.15L33.48 6.53L32.10 6.53ZM38.49 11.93C38.40 11.99 38.16 12.06 37.89 12.06C37.44 12.06 37.16 11.80 37.16 11.20L37.16 7.67L38.56 7.67L38.56 6.53L37.16 6.53L37.16 4.64L35.74 4.64L35.74 6.53L34.87 6.53L34.87 7.67L35.74 7.67L35.74 11.32C35.74 12.91 36.74 13.27 37.55 13.27C38.08 13.27 38.50 13.17 38.67 13.08ZM40.72 5.26C41.23 5.26 41.64 4.86 41.64 4.36C41.64 3.86 41.23 3.46 40.72 3.46C40.21 3.46 39.80 3.86 39.80 4.36C39.80 4.86 40.21 5.26 40.72 5.26ZM40.03 13.15L41.42 13.15L41.42 6.53L40.03 6.53ZM46.46 13.34C47.38 13.34 48.12 13.07 48.74 12.60L47.92 11.58C47.56 11.93 47.05 12.13 46.49 12.13C45.19 12.13 44.42 11.14 44.42 9.84C44.42 8.55 45.19 7.57 46.49 7.57C47.05 7.57 47.56 7.77 47.92 8.12L48.74 7.10C48.12 6.64 47.38 6.36 46.46 6.36C44.41 6.36 42.98 7.89 42.98 9.84C42.98 11.81 44.41 13.34 46.46 13.34ZM49.19 12.22C49.67 12.88 50.68 13.34 51.92 13.34C53.55 13.34 54.56 12.54 54.56 11.35C54.56 9.00 51.06 9.79 51.06 8.36C51.06 7.86 51.44 7.53 52.21 7.51C52.69 7.50 53.24 7.73 53.64 8.11L54.41 7.22C53.97 6.75 53.13 6.36 52.15 6.36C50.57 6.36 49.61 7.19 49.61 8.41C49.61 10.82 53.05 10.09 53.05 11.38C53.05 11.87 52.65 12.21 51.83 12.21C51.17 12.21 50.57 11.97 50.09 11.35Z"></path></g><!----><g data-v-423bf9ae="" id="ee438df3-d056-442c-b65d-5ea729adba87" transform="matrix(1.682746205380546,0,0,1.682746205380546,-12.999330266873315,-40.385908929133095)" stroke="none" fill="#ffffff"><path d="M83.924 24c-4.363 0-7.913 3.55-7.913 7.913 0 1.461.405 2.825 1.098 4.001L64.486 48.536a7.865 7.865 0 00-3.804-.978c-3.191 0-5.942 1.903-7.192 4.631L41.195 49.8c-.803-3.519-3.951-6.154-7.709-6.154-4.363 0-7.913 3.55-7.913 7.913 0 1.309.325 2.543.89 3.631l-7.214 7.216a7.848 7.848 0 00-3.335-.747C11.55 61.658 8 65.208 8 69.571s3.55 7.913 7.913 7.913c4.364 0 7.914-3.55 7.914-7.913a7.837 7.837 0 00-.765-3.371l7.35-7.351c.945.4 1.984.622 3.074.622 3.07 0 5.73-1.76 7.042-4.32l12.538 2.437c.929 3.337 3.988 5.797 7.617 5.797 4.363 0 7.913-3.55 7.913-7.913 0-1.019-.2-1.989-.553-2.885l13.229-13.228c.83.296 1.721.467 2.651.467 4.363 0 7.913-3.55 7.913-7.913S88.287 24 83.924 24zM15.913 72.104a2.536 2.536 0 01-2.533-2.533 2.535 2.535 0 012.533-2.533 2.536 2.536 0 012.534 2.533 2.536 2.536 0 01-2.534 2.533zm17.573-18.012a2.537 2.537 0 01-2.534-2.533c0-1.397 1.137-2.533 2.534-2.533s2.534 1.136 2.534 2.533a2.537 2.537 0 01-2.534 2.533zm27.197 3.913a2.536 2.536 0 01-2.533-2.533 2.535 2.535 0 012.533-2.533 2.536 2.536 0 012.533 2.533 2.537 2.537 0 01-2.533 2.533zm23.241-23.559c-1.397 0-2.533-1.136-2.533-2.533s1.136-2.533 2.533-2.533c1.396 0 2.533 1.136 2.533 2.533s-1.137 2.533-2.533 2.533z"></path></g><!----></svg>