<svg data-v-fde0c5aa="" xmlns="http://www.w3.org/2000/svg" viewBox="0 0 300 300" class="font"><!----><defs data-v-fde0c5aa=""><linearGradient data-v-fde0c5aa="" gradientTransform="rotate(25)" id="f555625f-61b8-4294-8087-23e665e6bd3c" x1="0%" y1="0%" x2="100%" y2="0%"><stop data-v-fde0c5aa="" offset="0%" stop-color="#0076DD" stop-opacity="1"></stop><stop data-v-fde0c5aa="" offset="100%" stop-color="#00CDE9" stop-opacity="1"></stop></linearGradient></defs><rect data-v-fde0c5aa="" fill="url(#f555625f-61b8-4294-8087-23e665e6bd3c)" x="0" y="0" width="300px" height="300px" class="logo-background-square"></rect><defs data-v-fde0c5aa=""><!----></defs><g data-v-fde0c5aa="" id="c66694e5-4abf-47d8-9b30-35935a4dcc25" fill="#ffffff" transform="matrix(4.120621591985464,0,0,4.120621591985464,35.178872422998516,115.840046177197)"><path d="M6.90 13.15L8.79 13.15L4.72 7.74L8.34 3.82L6.46 3.82L2.65 8.04L2.65 3.82L1.17 3.82L1.17 13.15L2.65 13.15L2.65 9.99L3.75 8.81ZM13.90 6.53L13.90 10.57C13.78 11.74 12.99 12.12 12.25 12.12C11.23 12.12 10.79 11.39 10.79 10.31L10.79 6.53L9.38 6.53L9.38 10.63C9.38 12.69 10.70 13.33 11.86 13.33C12.79 13.33 13.50 12.95 13.90 12.37L14.07 13.15L15.31 13.15L15.31 6.53ZM20.66 6.36C19.72 6.36 18.99 6.72 18.48 7.32L18.48 3.24L17.06 3.24L17.06 13.15L18.21 13.15L18.39 12.25C18.90 12.91 19.67 13.31 20.66 13.31C22.39 13.31 23.76 12.00 23.76 9.84C23.76 7.69 22.39 6.36 20.66 6.36ZM20.33 12.12C19.09 12.12 18.29 11.14 18.29 9.84C18.29 8.55 19.09 7.55 20.33 7.55C21.52 7.55 22.31 8.55 22.31 9.84C22.31 11.14 21.52 12.12 20.33 12.12ZM26.02 5.26C26.53 5.26 26.94 4.86 26.94 4.36C26.94 3.86 26.53 3.46 26.02 3.46C25.51 3.46 25.10 3.86 25.10 4.36C25.10 4.86 25.51 5.26 26.02 5.26ZM25.33 13.15L26.72 13.15L26.72 6.53L25.33 6.53ZM28.70 13.15L30.11 13.15L30.11 3.24L28.70 3.24ZM32.78 5.26C33.29 5.26 33.70 4.86 33.70 4.36C33.70 3.86 33.29 3.46 32.78 3.46C32.27 3.46 31.86 3.86 31.86 4.36C31.86 4.86 32.27 5.26 32.78 5.26ZM32.10 13.15L33.48 13.15L33.48 6.53L32.10 6.53ZM38.49 11.93C38.40 11.99 38.16 12.06 37.89 12.06C37.44 12.06 37.16 11.80 37.16 11.20L37.16 7.67L38.56 7.67L38.56 6.53L37.16 6.53L37.16 4.64L35.74 4.64L35.74 6.53L34.87 6.53L34.87 7.67L35.74 7.67L35.74 11.32C35.74 12.91 36.74 13.27 37.55 13.27C38.08 13.27 38.50 13.17 38.67 13.08ZM40.72 5.26C41.23 5.26 41.64 4.86 41.64 4.36C41.64 3.86 41.23 3.46 40.72 3.46C40.21 3.46 39.80 3.86 39.80 4.36C39.80 4.86 40.21 5.26 40.72 5.26ZM40.03 13.15L41.42 13.15L41.42 6.53L40.03 6.53ZM46.46 13.34C47.38 13.34 48.12 13.07 48.74 12.60L47.92 11.58C47.56 11.93 47.05 12.13 46.49 12.13C45.19 12.13 44.42 11.14 44.42 9.84C44.42 8.55 45.19 7.57 46.49 7.57C47.05 7.57 47.56 7.77 47.92 8.12L48.74 7.10C48.12 6.64 47.38 6.36 46.46 6.36C44.41 6.36 42.98 7.89 42.98 9.84C42.98 11.81 44.41 13.34 46.46 13.34ZM49.19 12.22C49.67 12.88 50.68 13.34 51.92 13.34C53.55 13.34 54.56 12.54 54.56 11.35C54.56 9.00 51.06 9.79 51.06 8.36C51.06 7.86 51.44 7.53 52.21 7.51C52.69 7.50 53.24 7.73 53.64 8.11L54.41 7.22C53.97 6.75 53.13 6.36 52.15 6.36C50.57 6.36 49.61 7.19 49.61 8.41C49.61 10.82 53.05 10.09 53.05 11.38C53.05 11.87 52.65 12.21 51.83 12.21C51.17 12.21 50.57 11.97 50.09 11.35Z"></path></g><!----><!----></svg>