<svg xmlns="http://www.w3.org/2000/svg" viewBox="0 0 100 100">
  <defs>
    <linearGradient id="fav-grad" x1="0%" y1="0%" x2="100%" y2="100%">
      <stop offset="0%" stop-color="#0076DD" />
      <stop offset="100%" stop-color="#00CDE9" />
    </linearGradient>
  </defs>
  <rect width="100" height="100" rx="20" fill="url(#fav-grad)" />
  <path
    fill="white"
    d="M83.924 24c-4.363 0-7.913 3.55-7.913 7.913 0 1.461.405 2.825 1.098 4.001L64.486 48.536a7.865 7.865 0 00-3.804-.978c-3.191 0-5.942 1.903-7.192 4.631L41.195 49.8c-.803-3.519-3.951-6.154-7.709-6.154-4.363 0-7.913 3.55-7.913 7.913 0 1.309.325 2.543.89 3.631l-7.214 7.216a7.848 7.848 0 00-3.335-.747C11.55 61.658 8 65.208 8 69.571s3.55 7.913 7.913 7.913c4.364 0 7.914-3.55 7.914-7.913a7.837 7.837 0 00-.765-3.371l7.35-7.351c.945.4 1.984.622 3.074.622 3.07 0 5.73-1.76 7.042-4.32l12.538 2.437c.929 3.337 3.988 5.797 7.617 5.797 4.363 0 7.913-3.55 7.913-7.913 0-1.019-.2-1.989-.553-2.885l13.229-13.228c.83.296 1.721.467 2.651.467 4.363 0 7.913-3.55 7.913-7.913S88.287 24 83.924 24zM15.913 72.104a2.536 2.536 0 01-2.533-2.533 2.535 2.535 0 012.533-2.533 2.536 2.536 0 012.534 2.533 2.536 2.536 0 01-2.534 2.533zm17.573-18.012a2.537 2.537 0 01-2.534-2.533c0-1.397 1.137-2.533 2.534-2.533s2.534 1.136 2.534 2.533a2.537 2.537 0 01-2.534 2.533zm27.197 3.913a2.536 2.536 0 01-2.533-2.533 2.535 2.535 0 012.533-2.533 2.536 2.536 0 012.533 2.533 2.537 2.537 0 01-2.533 2.533zm23.241-23.559c-1.397 0-2.533-1.136-2.533-2.533s1.136-2.533 2.533-2.533c1.396 0 2.533 1.136 2.533 2.533s-1.137 2.533-2.533 2.533z"
  />
</svg>
