<svg xmlns="http://www.w3.org/2000/svg" viewBox="0 0 32 32">
  <path fill="#326ce5" d="M15.9.5a2.3 2.3 0 0 0-.9.2L3.4 6.2a2.3 2.3 0 0 0-1.2 1.6l-2 12.6a2.3 2.3 0 0 0 .4 1.8l8 9.8a2.3 2.3 0 0 0 1.8.9h12.2a2.3 2.3 0 0 0 1.8-.9l8-9.8c.4-.5.5-1.2.4-1.8l-2-12.6a2.3 2.3 0 0 0-1.2-1.6L17.8.6a2.3 2.3 0 0 0-.9-.1zm.1 4.4a.9.9 0 0 1 .9.7l.8 4.5.2.2h.2l3.8-2.5a.9.9 0 0 1 1.3.3.9.9 0 0 1-.1 1.1l-3 3.3.1.3.2.2 4.5.6a.9.9 0 0 1 .8 1 .9.9 0 0 1-.9.8l-4.6.2-.1.3-.1.2 2.7 3.6a.9.9 0 0 1-.2 1.2.9.9 0 0 1-1.2-.1l-3.2-3.1-.3.1-.2.1-1.3 4.4a.9.9 0 0 1-1.1.6.9.9 0 0 1-.6-1l1-4.5-.2-.2-.2-.2-4.1 2a.9.9 0 0 1-1.2-.4.9.9 0 0 1 .3-1.2l3.8-2.4v-.3l-.1-.2-4.5-1.1a.9.9 0 0 1-.7-1.1.9.9 0 0 1 1-.7l4.6.7.2-.2.1-.3-2.2-3.9a.9.9 0 0 1 .3-1.2.9.9 0 0 1 1.2.2l2.5 3.7.3-.1.2-.1.4-4.6a.9.9 0 0 1 .8-.8z"/>
</svg>
